<?xml version="1.0" standalone="no"?><!DOCTYPE svg PUBLIC "-//W3C//DTD SVG 1.1//EN" "http://www.w3.org/Graphics/SVG/1.1/DTD/svg11.dtd"><svg t="1721286363565" class="icon" viewBox="0 0 1024 1024" version="1.1" xmlns="http://www.w3.org/2000/svg" p-id="1798" xmlns:xlink="http://www.w3.org/1999/xlink" width="200" height="200"><path d="M33.8944 79.104L79.104 33.8944l271.5392 271.5136-45.2608 45.2608z" fill="#AAD6F9" p-id="1799"></path><path d="M0 0l48.128 179.2L179.2 48.128 0 0z" fill="#70BBEF" p-id="1800"></path><path d="M734.464 179.2A262.656 262.656 0 0 0 512 305.152 262.656 262.656 0 0 0 289.536 179.2a215.04 215.04 0 0 0-221.184 223.232c1.28 94.464 42.496 198.656 154.88 290.304A986.368 986.368 0 0 0 512 844.8a986.368 986.368 0 0 0 288.768-152.064c112.384-91.648 153.6-195.84 153.6-290.304A215.04 215.04 0 0 0 734.464 179.2z" fill="#F0A0F2" p-id="1801"></path><path d="M943.616 326.144A209.92 209.92 0 0 0 734.464 179.2 262.656 262.656 0 0 0 512 305.152 262.656 262.656 0 0 0 289.536 179.2a215.04 215.04 0 0 0-221.184 223.232c1.28 94.464 42.496 198.656 154.88 290.304 17.152 14.08 35.072 26.88 52.992 38.912h14.08c324.096 0.512 593.664-174.08 653.312-405.504z" fill="#F5AEF4" p-id="1802"></path><path d="M169.472 326.144m-25.856 0a25.856 25.856 0 1 0 51.712 0 25.856 25.856 0 1 0-51.712 0Z" fill="#FFFFFF" p-id="1803"></path><path d="M128 408.064c5.376-30.976 27.392-37.376 37.888-25.6s-7.68 32.512 6.656 99.84a1159.168 1159.168 0 0 0 39.424 113.664c0 12.032-46.336-40.448-68.608-94.464a182.016 182.016 0 0 1-15.36-93.44z" fill="#FFFFFF" p-id="1804"></path><path d="M575.3344 575.4112a32 32 0 0 1 44.6976 0.512l248.9088 248.9344-45.2608 45.2352-248.9088-248.8832a32 32 0 0 1 0.5632-45.824z" fill="#AAD6F9" p-id="1805"></path><path d="M919.552 919.552V1024L793.6 898.048V793.6l125.952 125.952z" fill="#94CFF7" p-id="1806"></path><path d="M919.552 919.552H1024L898.048 793.6H793.6l125.952 125.952z" fill="#70BBEF" p-id="1807"></path></svg>