<?xml version="1.0" standalone="no"?><!DOCTYPE svg PUBLIC "-//W3C//DTD SVG 1.1//EN" "http://www.w3.org/Graphics/SVG/1.1/DTD/svg11.dtd"><svg t="1721288219137" class="icon" viewBox="0 0 1243 1024" version="1.1" xmlns="http://www.w3.org/2000/svg" p-id="3841" xmlns:xlink="http://www.w3.org/1999/xlink" width="242.7734375" height="200"><path d="M1006.035088 81.440936c-32.336842-10.778947-62.278363-14.37193-89.824562-14.37193-79.045614 0-142.521637 38.325146-186.835087 95.812865-10.778947 14.37193-26.348538 20.360234-41.918129 20.360234-14.37193 0-28.74386-5.988304-39.522807-17.964912-46.708772-56.290058-107.789474-97.010526-188.032749-97.010526-25.150877 0-52.697076 4.790643-82.638596 13.174269-77.847953 26.348538-159.288889 114.975439-167.672515 243.125146h10.778948c50.301754 0 97.010526 17.964912 136.533333 53.894737 38.325146-34.732164 86.231579-53.894737 138.928655-53.894737 23.953216 0 49.104094 3.592982 74.254971 11.976608 35.929825 10.778947 69.464327 34.732164 95.812865 67.069006 27.546199 33.534503 45.511111 75.452632 51.499415 119.766082 9.581287 69.464327-8.383626 144.916959-53.894736 217.974269-26.348538 44.31345-63.476023 87.42924-108.987135 129.347368 33.534503 25.150877 70.661988 51.499415 110.184795 77.847953 8.383626 5.988304 17.964912 8.383626 28.74386 8.383626 9.581287 0 20.360234-2.395322 28.74386-8.383626C1372.519298 518.587135 1185.684211 138.928655 1006.035088 81.440936z" fill="#FF5F7D" p-id="3842"></path><path d="M1239.578947 293.426901c-9.581287-65.871345-34.732164-128.149708-75.452631-178.451462C1125.80117 69.464327 1077.894737 34.732164 1026.395322 17.964912 989.267836 5.988304 952.140351 0 916.210526 0c-88.626901 0-168.870175 38.325146-228.753216 107.789474C622.783626 37.127485 546.133333 1.197661 461.099415 1.197661c-33.534503 0-68.266667 5.988304-102.99883 16.767251-51.499415 16.767251-99.405848 50.301754-137.730994 97.010527-40.720468 50.301754-67.069006 111.382456-75.452632 178.451462-2.395322 15.569591-3.592982 29.94152-3.592982 45.511111-32.336842 11.976608-63.476023 34.732164-87.42924 64.673684C26.348538 437.146199 8.383626 479.064327 2.395322 523.377778c-9.581287 69.464327 8.383626 144.916959 53.894736 217.974269 49.104094 80.243275 131.74269 159.288889 243.125147 233.543859 17.964912 11.976608 39.522807 17.964912 61.080701 17.964913 21.557895 0 43.115789-5.988304 61.080702-17.964913 29.94152-19.162573 56.290058-39.522807 82.638597-59.883041 38.325146 29.94152 80.243275 59.883041 124.556725 88.626901 19.162573 13.174269 41.918129 19.162573 65.871345 19.162573 22.755556 0 45.511111-7.185965 65.871345-19.162573 183.242105-120.963743 316.182456-247.915789 396.425731-377.263158 68.266667-111.382456 97.010526-226.357895 82.638596-332.949707zM692.247953 956.930994c-9.581287 0-20.360234-2.395322-28.743859-8.383626-39.522807-26.348538-76.650292-51.499415-110.184796-77.847953 45.511111-41.918129 81.440936-85.033918 108.987135-129.347368 44.31345-73.05731 63.476023-148.509942 53.894737-217.974269-5.988304-44.31345-23.953216-86.231579-51.499416-119.766082-26.348538-32.336842-59.883041-56.290058-95.812865-67.069006-25.150877-8.383626-50.301754-11.976608-74.254971-11.976608-51.499415 0-100.603509 19.162573-138.928655 53.894737-39.522807-34.732164-86.231579-53.894737-136.533333-53.894737h-10.778948C217.974269 196.416374 299.415205 107.789474 378.460819 81.440936c29.94152-9.581287 57.487719-13.174269 82.638596-13.174269 79.045614 0 140.126316 41.918129 188.032749 97.010526 10.778947 11.976608 25.150877 17.964912 39.522807 17.964912 15.569591 0 31.139181-7.185965 41.918128-20.360234 44.31345-57.487719 106.591813-95.812865 186.835088-95.812865 27.546199 0 57.487719 4.790643 89.824562 14.37193 178.451462 57.487719 366.484211 437.146199-285.043275 867.106432-9.581287 5.988304-20.360234 8.383626-29.941521 8.383626zM359.298246 926.989474c-8.383626 0-16.767251-2.395322-23.953217-7.185965C-50.301754 661.108772 62.278363 434.750877 170.067836 400.018713c17.964912-5.988304 34.732164-8.383626 50.301755-8.383625 44.31345 0 79.045614 21.557895 106.591813 50.301754 8.383626 8.383626 19.162573 13.174269 29.94152 13.174269 11.976608 0 23.953216-4.790643 32.336842-15.569591 26.348538-29.94152 62.278363-49.104094 105.394152-49.104093 16.767251 0 34.732164 2.395322 53.894737 9.581286 107.789474 34.732164 220.369591 261.090058-166.474854 519.784796-5.988304 4.790643-14.37193 7.185965-22.755555 7.185965z" fill="" p-id="3843"></path><path d="M549.726316 400.018713c-19.162573-5.988304-37.127485-9.581287-53.894737-9.581286-44.31345 0-80.243275 19.162573-105.394152 49.104093-8.383626 9.581287-20.360234 15.569591-32.336842 15.569591-10.778947 0-21.557895-4.790643-29.941521-13.174269-27.546199-29.94152-62.278363-50.301754-106.591813-50.301754-15.569591 0-32.336842 2.395322-50.301754 8.383625-107.789474 34.732164-220.369591 261.090058 166.474854 519.784796 7.185965 4.790643 15.569591 7.185965 23.953216 7.185965s16.767251-2.395322 23.953217-7.185965c383.251462-258.694737 270.671345-485.052632 164.079532-519.784796z" fill="#FFB9A8" p-id="3844"></path></svg>