<?xml version="1.0" standalone="no"?><!DOCTYPE svg PUBLIC "-//W3C//DTD SVG 1.1//EN" "http://www.w3.org/Graphics/SVG/1.1/DTD/svg11.dtd"><svg t="1721288732849" class="icon" viewBox="0 0 1024 1024" version="1.1" xmlns="http://www.w3.org/2000/svg" p-id="1638" xmlns:xlink="http://www.w3.org/1999/xlink" width="200" height="200"><path d="M364.372531 251.183443c48.165569-39.977422 48.285983-167.977422-52.620885-148.349953-120.052681 23.480715-51.657573 234.927563 52.620885 148.349953z m331.981185 31.187206c86.336783 71.766698 143.172154-103.555974 43.58984-122.942615-83.567262-16.25588-83.446849 89.828786-43.58984 122.942615zM381.952963 801.595484c-45.757291-10.476011-12.763876 89.828786-24.805268 118.607714 8.067733 0.60207 18.904986 1.565381 34.558796 2.889935 2.649106 0.240828 5.177799-0.120414 7.345249-0.722484-18.784572-24.203198 16.25588-113.068674-17.098777-120.775165z m534.878646-373.523988c-24.323612-32.993415-57.196613-64.060207-94.043274-82.965193-17.580433-9.031044-36.003763-15.292568-54.788335-17.700847-55.751646-7.224835-114.634055 7.465663-152.925682 49.008467-22.156162 23.962371-57.196613 140.643462-88.263405 146.904986-10.11477 1.926623-92.598307-176.767639-130.167451-206.028222-43.951082-34.197554-139.439323-27.815616-180.741298 0-84.169332 56.594544-175.683913 264.188147-153.888994 286.585136 32.632173 33.475071 78.148636-58.521167 95.729069-52.139228 17.580433 6.502352 57.076199 374.126058 133.659454 370.272812 22.878645-1.083725 32.632173-2.287865 41.061148-2.649106-32.752587-40.82032-32.511759-220.598307-42.265287-224.210724-11.078081-4.094073-39.616181 53.70461-60.206961 32.632173-13.727187-14.088429 43.830668-144.376294 96.571966-179.898401 26.009407-17.460019 85.855127-21.433678 113.429915 0 3.37159 2.649106 7.345249 7.345249 11.680151 13.245532 21.79492 13.486359 45.396049 82.363123 74.89746 83.326434 7.586077 0.240828 14.810913-4.214487 21.674506-11.318909 18.302916-33.113829 41.542803-74.536218 55.149576-85.253057 27.574788-21.433678 87.540922-17.460019 113.429916 0 52.861712 35.522107 110.299153 165.809972 96.571966 179.898401-20.470367 20.952023-49.008467-36.726246-60.206962-32.632173-9.753528 3.612418-9.5127 183.029163-42.144873 224.09031 12.763876-0.240828 19.266228 1.204139 50.694262 2.76952 85.253057 4.334901 104.037629-349.561618 107.409219-403.868297 38.0508 7.706491 63.21731 151.962371 91.634995 65.264346 16.135466-48.526811-16.376294-117.764817-43.951081-155.33396z m-496.827846 78.389464c-65.505174 54.306679-108.492944-78.389464-32.993415-93.079963 63.21731-12.28222 63.21731 68.033866 32.993415 93.079963z m203.740357 0c-30.223895-25.046096-30.223895-105.482596 33.113829-93.079963 75.379116 14.690499 32.391345 147.507056-33.113829 93.079963z m38.0508 295.134524c-31.668862 7.345249-1.806209 87.540922-14.690499 116.560678 3.732832 3.732832 8.428975 5.53904 14.570085 5.057385 10.355597-0.963311 18.42333-1.685795 25.16651-2.167451-13.004704-27.93603 21.072437-130.047037-25.046096-119.450612z" p-id="1639"></path></svg>